<svg width="38" height="38" viewBox="0 0 38 38" fill="none" xmlns="http://www.w3.org/2000/svg">
<rect width="38" height="38" rx="8" fill="url(#paint0_radial_9565_3472)"/>
<path d="M29.4233 30.991C29.0041 30.991 28.5848 30.8345 28.269 30.516L26.1019 28.1953C25.4649 27.5638 24.3061 25.6937 24.9432 25.0623C25.5802 24.4308 26.6192 24.2338 27.2563 24.8653L30.5776 28.2331C31.2147 28.8645 31.2147 29.89 30.5776 30.5214C30.2564 30.8399 29.8426 30.9964 29.4233 30.9964V30.991Z" fill="white" fill-opacity="0.75"/>
<path d="M29.6627 31.1906C30.5438 31.1906 31.2581 30.4827 31.2581 29.6093C31.2581 28.7359 30.5438 28.028 29.6627 28.028C28.7816 28.028 28.0674 28.7359 28.0674 29.6093C28.0674 30.4827 28.7816 31.1906 29.6627 31.1906Z" fill="white"/>
<path fill-rule="evenodd" clip-rule="evenodd" d="M18.7677 10.0449C16.5189 10.0449 14.2702 10.8922 12.5605 12.5869H12.566L12.1685 12.9809C12.0324 13.1158 11.8091 13.1158 11.6784 12.9755L10.0123 11.2161C9.82718 11.0218 9.83263 10.7141 10.0232 10.5252L10.2519 10.2985C14.9454 5.64625 22.59 5.64625 27.2835 10.2985C31.977 14.9508 31.977 22.5284 27.2835 27.1806C26.9078 27.553 26.5103 27.8823 26.1019 28.1953L24.7135 26.7327C24.2888 26.2847 24.2997 25.5615 24.7407 25.1244L24.9749 24.8923C28.3942 21.4975 28.3942 15.9817 24.9749 12.5869C23.2597 10.8922 21.0164 10.0449 18.7677 10.0449ZM20.3412 27.2886C20.559 27.2508 20.7877 27.3156 20.9401 27.4775L22.6226 29.2531C22.8894 29.5338 22.7642 29.9979 22.3885 30.1166C21.2124 30.4836 19.9927 30.6725 18.7676 30.6725C15.6858 30.6725 12.5986 29.5068 10.2518 27.1806C6.70718 23.6671 5.85234 18.4913 7.66548 14.1682C7.75805 13.9416 8.06296 13.893 8.23175 14.0711C8.33242 14.1775 8.44949 14.3012 8.57594 14.4348C9.07188 14.959 9.71202 15.6356 10.0721 16.014C10.2464 16.1921 10.3063 16.4458 10.2464 16.6887C9.55486 19.5383 10.3226 22.6687 12.5659 24.8923C14.6785 26.9863 17.6024 27.7797 20.3412 27.2886Z" fill="white"/>
<defs>
<radialGradient id="paint0_radial_9565_3472" cx="0" cy="0" r="1" gradientUnits="userSpaceOnUse" gradientTransform="translate(6.365 37.999) scale(41.8 41.7989)">
<stop stop-color="#0099FF"/>
<stop offset="0.6" stop-color="#A033FF"/>
<stop offset="0.9" stop-color="#FF5280"/>
<stop offset="1" stop-color="#FF5F5F"/>
</radialGradient>
</defs>
</svg>
