<svg width="181" height="32" viewBox="0 0 181 32" fill="none" xmlns="http://www.w3.org/2000/svg">
<path d="M29.1805 31.7678C28.6411 31.7678 28.1017 31.5633 27.6954 31.1473L24.9074 28.115C24.0878 27.29 22.7016 24.8465 23.5212 24.0215C24.3408 23.1964 25.5729 22.9391 26.3925 23.7642L30.6656 28.1644C31.4852 28.9895 31.4852 30.3293 30.6656 31.1543C30.2523 31.5704 29.7199 31.7749 29.1805 31.7749V31.7678Z" fill="white" fill-opacity="0.75"/>
<path fill-rule="evenodd" clip-rule="evenodd" d="M122.538 1.32571V28.1503V28.1573C122.538 28.9119 123.147 29.5254 123.897 29.5254H125.403C126.131 29.5254 126.72 28.933 126.72 28.1996V19.928C126.72 13.7226 130.895 12.2911 133.045 12.2911C135.196 12.2911 137.101 13.8072 137.101 18.01V28.1996C137.101 28.933 137.69 29.5254 138.418 29.5254H139.967C140.695 29.5254 141.283 28.933 141.283 28.1996V17.9677C141.283 11.5577 137.998 8.61714 133.494 8.61714C130.208 8.61714 127.609 10.2108 126.72 13.0667V1.32571C126.72 0.592341 126.131 0 125.403 0H123.855C123.126 0 122.538 0.592341 122.538 1.32571ZM55.6598 19.3499C55.6598 13.3912 60.2832 8.61017 66.6088 8.61017C71.7155 8.61017 76.381 11.6706 76.9484 18.2075C77.0675 19.1877 76.5 19.7166 75.5263 19.7166H59.7928C59.6737 23.5104 62.791 26.2887 67.2112 26.2887C69.2007 26.2887 70.98 25.7598 72.7243 24.5752C73.4948 24.0886 74.1463 24.1239 74.7908 24.7797L75.071 25.104C75.7225 25.7951 75.7225 26.6554 74.7908 27.4311C72.4371 29.3491 69.7191 29.9626 67.1692 29.9626C60.031 29.9626 55.6528 25.1887 55.6528 19.3499H55.6598ZM72.8153 16.6138C71.7576 12.9822 68.9205 12.2065 66.6929 12.2065C64.3391 12.2065 61.418 13.1444 60.1641 16.6138H72.8153ZM34.007 20.6121V10.3872C34.007 9.65378 34.5954 9.06144 35.3239 9.06144H36.83C37.5796 9.06144 38.189 9.67494 38.189 10.4295V20.5768C38.189 24.7444 40.0524 26.2957 42.203 26.2957C44.3535 26.2957 48.5286 24.829 48.5286 18.6588V10.3872C48.5286 9.65378 49.117 9.06144 49.8456 9.06144H51.3517C52.1012 9.06144 52.7107 9.67494 52.7107 10.4295V28.1926C52.7107 28.926 52.1222 29.5183 51.3937 29.5183H49.8456C49.117 29.5183 48.5286 28.926 48.5286 28.1926V25.513C47.6389 28.3689 45.04 29.9626 41.7546 29.9626C37.2503 29.9626 34.007 27.0221 34.007 20.6121ZM79.7505 10.387V28.1502V28.1573C79.7505 28.9118 80.3599 29.5253 81.1095 29.5253H82.6156C83.3441 29.5253 83.9325 28.9329 83.9325 28.1996V19.928C83.9325 13.7225 88.1076 12.291 90.2582 12.291C92.4088 12.291 94.3142 13.8071 94.3142 18.0099V28.1996C94.3142 28.9329 94.9026 29.5253 95.6311 29.5253H97.1793C97.9078 29.5253 98.4962 28.9329 98.4962 28.1996V17.9676C98.4962 11.5576 95.2108 8.61708 90.7065 8.61708C87.4211 8.61708 84.8222 10.2108 83.9325 13.0667V10.387C83.9325 9.65367 83.3441 9.06133 82.6156 9.06133H81.0675C80.3389 9.06133 79.7505 9.65367 79.7505 10.387ZM101.207 19.5121C101.207 13.5111 105.305 8.61017 112.647 8.61017C114.272 8.61017 116.457 8.93455 118.769 10.2814C119.624 10.768 119.743 11.586 119.175 12.3617L118.853 12.7707C118.286 13.5463 117.676 13.5887 116.787 13.1797C115.042 12.3194 113.298 12.2841 112.85 12.2841C108.549 12.2841 105.389 15.14 105.389 19.2653C105.389 23.3905 108.556 26.2887 112.85 26.2887C113.298 26.2887 115.042 26.2464 116.787 25.3932C117.676 24.9418 118.328 25.0265 118.853 25.8022L119.14 26.2111C119.708 26.9868 119.421 27.967 118.125 28.6228C116.1 29.7229 114.111 29.9697 112.647 29.9697C105.466 29.9697 101.207 25.3579 101.207 19.5191V19.5121ZM7.48564 7.72152C9.68525 5.50729 12.5784 4.40018 15.4715 4.40018C18.3646 4.40018 21.2507 5.50729 23.4573 7.72152C27.8566 12.157 27.8566 19.3638 23.4573 23.7993L23.1561 24.1026C22.5887 24.6737 22.5747 25.6187 23.1211 26.204L24.9074 28.115C25.4328 27.706 25.9442 27.2758 26.4275 26.7892C32.4659 20.7107 32.4659 10.8101 26.4275 4.73161C20.3891 -1.34693 10.5539 -1.34693 4.51547 4.73161L4.22125 5.02778C3.97607 5.27459 3.96907 5.67653 4.20724 5.93039L6.35081 8.22924C6.51893 8.41258 6.80614 8.41258 6.98127 8.23629L7.49265 7.72152H7.48564ZM17.4958 26.9303C17.776 26.8809 18.0702 26.9655 18.2664 27.1771L20.431 29.4971C20.7742 29.8638 20.6131 30.4702 20.1297 30.6254C18.6166 31.1049 17.0475 31.3517 15.4713 31.3517C11.5064 31.3517 7.53452 29.8285 4.51531 26.7893C-0.045033 22.1986 -1.14484 15.4361 1.18787 9.78767C1.30696 9.4915 1.69925 9.42803 1.9164 9.66074C2.04594 9.79973 2.19659 9.96143 2.3593 10.1361C2.99733 10.8209 3.82086 11.7049 4.28414 12.1993C4.5083 12.432 4.58536 12.7635 4.5083 13.0808C3.61865 16.8041 4.60637 20.8941 7.49249 23.7993C10.2105 26.5354 13.9722 27.572 17.4958 26.9303Z" fill="white"/>
<path d="M29.4885 32C30.6221 32 31.541 31.0814 31.541 29.9482C31.541 28.815 30.6221 27.8964 29.4885 27.8964C28.355 27.8964 27.436 28.815 27.436 29.9482C27.436 31.0814 28.355 32 29.4885 32Z" fill="white"/>
<path d="M146.64 29.5C146.18 29.5 145.92 29.24 145.92 28.78V16.22C145.92 15.76 146.18 15.5 146.64 15.5H150.5C154.96 15.5 157.7 18.64 157.7 22.5C157.7 26.36 154.96 29.5 150.5 29.5H146.64ZM148.04 27.76H150.46C153.6 27.76 155.54 25.42 155.54 22.5C155.54 19.58 153.6 17.24 150.46 17.24H148.04V27.76ZM164.249 29.72C161.329 29.72 158.969 27.4 158.969 24.48C158.969 21.6 161.329 19.26 164.249 19.26C167.189 19.26 169.569 21.62 169.569 24.48C169.569 27.38 167.189 29.72 164.249 29.72ZM164.249 27.92C166.069 27.92 167.509 26.4 167.509 24.5C167.509 22.6 166.069 21.06 164.249 21.06C162.469 21.06 161.009 22.6 161.009 24.5C161.009 26.4 162.469 27.92 164.249 27.92ZM176.358 29.72C172.818 29.72 170.718 27.46 170.718 24.6C170.718 21.66 172.738 19.26 176.358 19.26C177.158 19.26 178.238 19.42 179.378 20.08C179.798 20.32 179.858 20.72 179.578 21.1L179.418 21.3C179.138 21.68 178.838 21.7 178.398 21.5C177.538 21.08 176.678 21.06 176.458 21.06C174.338 21.06 172.778 22.46 172.778 24.48C172.778 26.5 174.338 27.92 176.458 27.92C176.678 27.92 177.538 27.9 178.398 27.48C178.838 27.26 179.158 27.3 179.418 27.68L179.558 27.88C179.838 28.26 179.698 28.74 179.058 29.06C178.058 29.6 177.078 29.72 176.358 29.72Z" fill="url(#paint0_linear_9610_3904)"/>
<defs>
<linearGradient id="paint0_linear_9610_3904" x1="144" y1="24.5" x2="181" y2="24.5" gradientUnits="userSpaceOnUse">
<stop stop-color="#009DFF"/>
<stop offset="0.400238" stop-color="#B03AE9"/>
<stop offset="0.798311" stop-color="#FF5280"/>
<stop offset="1" stop-color="#FF5F5F"/>
</linearGradient>
</defs>
</svg>
