<svg width="178" height="32" viewBox="0 0 178 32" fill="none" xmlns="http://www.w3.org/2000/svg">
<path fill-rule="evenodd" clip-rule="evenodd" d="M153.6 28.9139C153.467 29.2802 153.25 29.4634 152.963 29.4634H150.101C149.87 29.4634 149.709 29.3789 149.611 29.2168C149.513 29.0548 149.513 28.8364 149.611 28.5616L156.316 9.71524C156.449 9.30661 156.722 9.10229 157.128 9.10229H160.998C161.404 9.10229 161.67 9.30661 161.81 9.71524L168.543 28.5334C168.641 28.8082 168.634 29.0266 168.529 29.2027C168.424 29.3789 168.242 29.4634 167.997 29.4634H164.959C164.652 29.4634 164.442 29.2802 164.323 28.9139L162.818 24.5246H155.077L153.6 28.9139ZM161.691 21.2344L158.975 13.2943H158.828L156.169 21.2344H161.691ZM145.867 29.5127C146.999 29.5127 147.917 28.5885 147.917 27.4484C147.917 26.3083 146.999 25.3841 145.867 25.3841C144.734 25.3841 143.816 26.3083 143.816 27.4484C143.816 28.5885 144.734 29.5127 145.867 29.5127ZM171.804 29.4634H174.464C174.639 29.4634 174.779 29.4 174.898 29.2732C175.017 29.1464 175.073 28.9984 175.073 28.8223V9.71524C175.073 9.56024 175.017 9.41934 174.898 9.29252C174.779 9.1657 174.639 9.10229 174.464 9.10229H171.804C171.629 9.10229 171.489 9.1657 171.37 9.29252C171.251 9.41934 171.195 9.56024 171.195 9.71524V28.8223C171.195 28.9984 171.251 29.1464 171.37 29.2732C171.482 29.4 171.629 29.4634 171.804 29.4634Z" fill="url(#paint0_radial_9563_7138)"/>
<path d="M29.1543 31.7395C28.6153 31.7395 28.0764 31.5351 27.6705 31.1195L24.8849 28.09C24.0661 27.2656 22.6811 24.8243 23.5 24C24.3189 23.1757 25.5498 22.9187 26.3687 23.743L30.638 28.1393C31.4569 28.9636 31.4569 30.3022 30.638 31.1265C30.2251 31.5422 29.6932 31.7465 29.1543 31.7465V31.7395Z" fill="white" fill-opacity="0.75"/>
<path fill-rule="evenodd" clip-rule="evenodd" d="M122.428 1.32453V28.1251V28.1322C122.428 28.886 123.037 29.499 123.786 29.499H125.291C126.019 29.499 126.607 28.9072 126.607 28.1744V19.9102C126.607 13.7103 130.778 12.2801 132.927 12.2801C135.075 12.2801 136.979 13.7948 136.979 17.9939V28.1744C136.979 28.9072 137.567 29.499 138.295 29.499H139.841C140.569 29.499 141.157 28.9072 141.157 28.1744V17.9516C141.157 11.5474 137.875 8.60944 133.374 8.60944C130.092 8.60944 127.495 10.2017 126.607 13.0551V1.32453C126.607 0.591811 126.019 0 125.291 0H123.744C123.016 0 122.428 0.591811 122.428 1.32453ZM55.61 19.3326C55.61 13.3792 60.2293 8.60248 66.5493 8.60248C71.6514 8.60248 76.3127 11.6602 76.8796 18.1912C76.9986 19.1705 76.4317 19.6989 75.4588 19.6989H59.7394C59.6204 23.4893 62.7349 26.2652 67.1512 26.2652C69.1388 26.2652 70.9166 25.7368 72.6593 24.5532C73.4292 24.0671 74.08 24.1023 74.7239 24.7575L75.0039 25.0816C75.6548 25.772 75.6548 26.6316 74.7239 27.4066C72.3723 29.3229 69.6568 29.9359 67.1092 29.9359C59.9773 29.9359 55.603 25.1661 55.603 19.3326H55.61ZM72.7503 16.599C71.6934 12.9706 68.8589 12.1956 66.6332 12.1956C64.2816 12.1956 61.3631 13.1327 60.1103 16.599H72.7503ZM33.9766 20.5937V10.3779C33.9766 9.64515 34.5645 9.05334 35.2924 9.05334H36.7971C37.546 9.05334 38.1549 9.66629 38.1549 10.4201V20.5584C38.1549 24.7222 40.0166 26.2722 42.1652 26.2722C44.3139 26.2722 48.4852 24.8068 48.4852 18.6421V10.3779C48.4852 9.64515 49.0731 9.05334 49.801 9.05334H51.3058C52.0546 9.05334 52.6636 9.66629 52.6636 10.4201V28.1674C52.6636 28.9002 52.0756 29.492 51.3478 29.492H49.801C49.0731 29.492 48.4852 28.9002 48.4852 28.1674V25.4902C47.5964 28.3436 44.9998 29.9358 41.7173 29.9358C37.217 29.9358 33.9766 26.9979 33.9766 20.5937ZM79.6792 10.3778V28.125V28.1321C79.6792 28.886 80.2881 29.4989 81.037 29.4989H82.5417C83.2696 29.4989 83.8575 28.9071 83.8575 28.1744V19.9102C83.8575 13.7102 88.0289 12.28 90.1775 12.28C92.3262 12.28 94.2299 13.7948 94.2299 17.9938V28.1744C94.2299 28.9071 94.8178 29.4989 95.5456 29.4989H97.0924C97.8203 29.4989 98.4082 28.9071 98.4082 28.1744V17.9515C98.4082 11.5473 95.1257 8.60938 90.6254 8.60938C87.343 8.60938 84.7464 10.2016 83.8575 13.055V10.3778C83.8575 9.64504 83.2696 9.05323 82.5417 9.05323H80.995C80.2671 9.05323 79.6792 9.64504 79.6792 10.3778ZM101.117 19.4946C101.117 13.499 105.211 8.60248 112.546 8.60248C114.17 8.60248 116.353 8.92657 118.663 10.2722C119.517 10.7584 119.636 11.5756 119.069 12.3506L118.747 12.7592C118.18 13.5342 117.571 13.5765 116.682 13.1679C114.939 12.3083 113.197 12.2731 112.749 12.2731C108.452 12.2731 105.295 15.1265 105.295 19.248C105.295 23.3696 108.459 26.2652 112.749 26.2652C113.197 26.2652 114.939 26.2229 116.682 25.3705C117.571 24.9196 118.222 25.0041 118.747 25.7791L119.034 26.1877C119.601 26.9627 119.314 27.942 118.019 28.5972C115.996 29.6963 114.009 29.9429 112.546 29.9429C105.372 29.9429 101.117 25.3352 101.117 19.5017V19.4946ZM7.47895 7.71461C9.6766 5.50237 12.5671 4.39625 15.4577 4.39625C18.3482 4.39625 21.2317 5.50237 23.4364 7.71461C27.8317 12.1462 27.8317 19.3465 23.4364 23.7781L23.1354 24.081C22.5685 24.6517 22.5545 25.5958 23.1004 26.1805L24.8851 28.0898C25.4101 27.6812 25.921 27.2514 26.4039 26.7653C32.4369 20.6922 32.4369 10.8005 26.4039 4.72738C20.3709 -1.34573 10.5445 -1.34573 4.51143 4.72738L4.21748 5.02328C3.97252 5.26987 3.96552 5.67146 4.20348 5.92509L6.34513 8.22188C6.51311 8.40506 6.80006 8.40506 6.97503 8.22893L7.48595 7.71461H7.47895ZM17.4802 26.9062C17.7601 26.8569 18.0541 26.9414 18.2501 27.1528L20.4127 29.4707C20.7557 29.8371 20.5947 30.443 20.1118 30.598C18.6 31.0771 17.0323 31.3237 15.4575 31.3237C11.4961 31.3237 7.52779 29.8019 4.51127 26.7653C-0.0449928 22.1788 -1.14382 15.4223 1.18681 9.77892C1.30579 9.48302 1.69773 9.41961 1.91469 9.6521C2.04403 9.79088 2.19444 9.95233 2.35689 10.1267C2.99439 10.811 3.81737 11.6943 4.28031 12.1884C4.50427 12.4209 4.58126 12.7521 4.50427 13.0691C3.61542 16.7891 4.60226 20.8754 7.48579 23.7781C10.2014 26.5117 13.9597 27.5473 17.4802 26.9062Z" fill="white"/>
<path d="M29.4623 31.9714C30.5948 31.9714 31.513 31.0536 31.513 29.9214C31.513 28.7892 30.5948 27.8714 29.4623 27.8714C28.3297 27.8714 27.4116 28.7892 27.4116 29.9214C27.4116 31.0536 28.3297 31.9714 29.4623 31.9714Z" fill="white"/>
<defs>
<radialGradient id="paint0_radial_9563_7138" cx="0" cy="0" r="1" gradientUnits="userSpaceOnUse" gradientTransform="translate(149.051 29.5121) scale(34.3826 22.4508)">
<stop stop-color="#0099FF"/>
<stop offset="0.6" stop-color="#A033FF"/>
<stop offset="0.9" stop-color="#FF5280"/>
<stop offset="1" stop-color="#FF7061"/>
</radialGradient>
</defs>
</svg>
